<svg width="76" height="77" viewBox="0 0 76 77" fill="none" xmlns="http://www.w3.org/2000/svg">
<path d="M54.7272 54.6954L37.6105 43.1404L20.8423 55.2267C20.6763 55.3429 20.4771 55.1437 20.5933 54.9777L32.6796 38.2095L21.1246 21.0927C21.025 20.9267 21.2076 20.7441 21.3736 20.8437L38.5568 32.349L54.6442 20.9433C54.8103 20.8271 54.9929 21.0264 54.8933 21.1924L43.4876 37.2798L54.9929 54.463C55.0925 54.629 54.9099 54.8116 54.7438 54.712L54.7272 54.6954Z" fill="white"/>
<path d="M75.2159 37.7615L43.2236 43.9707L37.9939 76.1622C37.9441 76.4776 37.4959 76.4776 37.4461 76.1622L32.2164 43.9707L0.224129 37.7615C-0.0747095 37.7117 -0.0747095 37.28 0.224129 37.2136L32.2164 30.8882L37.4461 0.224128C37.4959 -0.0747095 37.9441 -0.0747095 37.9939 0.224128L43.2236 30.8882L75.2159 37.2136C75.5147 37.28 75.5147 37.6951 75.2159 37.7615Z" fill="white"/>
</svg>
